<svg width="248" height="248" viewBox="0 0 248 248" fill="none" xmlns="http://www.w3.org/2000/svg">
<g clip-path="url(#clip0)">
<path d="M218.172 161.533C217.087 168.581 215.216 175.485 212.592 182.116H31.7186C29.0943 175.485 27.2231 168.581 26.1389 161.533H218.172Z" fill="#DE81CE"/>
<path d="M212.592 182.116C209.786 189.42 206.064 196.335 201.514 202.7H42.7966C38.2462 196.335 34.5245 189.42 31.7186 182.116H212.592Z" fill="#B86AAB"/>
<path d="M201.514 202.7C196.059 210.509 189.454 217.449 181.922 223.284H62.3889C54.8566 217.449 48.2514 210.509 42.7966 202.7H201.514Z" fill="#78466F"/>
<path d="M181.922 223.284C146.803 250.728 97.5074 250.728 62.3889 223.284H181.922Z" fill="#382134"/>
<path d="M219.288 146.735C219.294 151.688 218.921 156.636 218.172 161.533H26.1389C20.6311 125.502 35.7563 89.4206 65.3121 68.0895C94.868 46.7585 133.878 43.769 166.337 60.3491C198.797 76.9292 219.244 110.286 219.288 146.735Z" fill="#0BD3D3"/>
<path d="M99.4222 165.334C99.2973 165.334 99.1705 165.334 99.0456 165.334C97.9482 165.239 96.936 164.709 96.2303 163.864C95.5245 163.018 95.1858 161.926 95.2899 160.829C95.3296 160.382 99.1743 116.049 87.3414 88.4311C83.2526 78.8951 79.5499 71.4839 76.5737 65.5334C70.4282 53.2123 66.3565 45.0575 66.3565 33.0694C66.3565 30.7876 68.207 28.9371 70.4888 28.9371C72.7725 28.9371 74.6229 30.7876 74.6229 33.0694C74.6229 43.1181 77.9284 49.7687 83.9848 61.8382C87.0103 67.889 90.7754 75.4194 94.955 85.1748C107.619 114.727 103.713 159.677 103.556 161.574C103.363 163.71 101.568 165.343 99.4222 165.334Z" fill="#804537"/>
<path d="M180.393 161.202C181.509 158.589 182.084 155.777 182.088 152.935C182.088 141.52 172.834 132.268 161.421 132.268C150.008 132.268 140.754 141.52 140.754 152.935C140.758 155.777 141.333 158.589 142.449 161.202" fill="#F2C94C"/>
<path d="M112.65 165.334C111.318 165.334 110.069 164.692 109.291 163.61C108.515 162.53 108.309 161.139 108.735 159.879C114.108 143.925 123.317 121.852 136.486 107.221C143.598 99.3671 149.596 93.4658 154.411 88.7281C164.045 79.2602 169.353 74.0438 172.598 64.5154C173.072 63.1172 174.259 62.0785 175.708 61.7909C177.155 61.5052 178.648 62.0122 179.621 63.1229C180.595 64.2335 180.902 65.7793 180.427 67.1776C176.548 78.5602 170.047 84.9516 160.21 94.6219C155.469 99.2858 149.571 105.085 142.627 112.763C130.405 126.321 121.712 147.31 116.587 162.524C116.017 164.212 114.43 165.345 112.65 165.334Z" fill="#804537"/>
<path d="M37.4234 78.5361C37.2701 78.5361 37.1169 78.5285 36.9655 78.5115C34.7026 78.2598 33.0697 76.2278 33.31 73.9649C37.7507 34.0254 69.5846 29.0247 69.9025 28.9793C72.1389 28.6936 74.1918 30.2545 74.5153 32.4852C74.8388 34.7179 73.3138 36.7972 71.0888 37.1586C69.9725 37.3327 45.2357 41.5236 41.531 74.8579C41.3002 76.9524 39.5311 78.5361 37.4234 78.5361Z" fill="#24AE5F"/>
<path d="M29.1568 53.7367C28.8522 53.7367 28.5495 53.7027 28.2524 53.6383C26.0293 53.1388 24.6291 50.9346 25.123 48.7114C25.2876 47.9508 29.3631 30.2714 43.2092 24.4741C51.678 20.9265 61.6075 22.6332 72.6931 29.5657C74.6325 30.7747 75.2247 33.329 74.0157 35.2702C72.8047 37.2096 70.2524 37.8018 68.3111 36.5928C59.6322 31.1777 52.2948 29.6603 46.4332 32.1029C36.551 36.2371 33.2323 50.384 33.2077 50.5259C32.7764 52.4123 31.0924 53.7462 29.1568 53.7367Z" fill="#24AE5F"/>
<path d="M111.823 62.0028C110.101 62.0028 108.561 60.9394 107.953 59.3293C107.499 58.1259 96.4876 29.9381 71.6259 37.0427C69.4595 37.5933 67.2477 36.3238 66.6309 34.1744C66.016 32.025 67.2231 29.7753 69.3536 29.098C95.1404 21.7246 110.941 43.7463 115.696 56.4193C116.171 57.6889 115.993 59.1117 115.221 60.2261C114.449 61.3387 113.177 62.0047 111.823 62.0028Z" fill="#24AE5F"/>
<path d="M70.4888 37.2036C69.7717 37.2055 69.066 37.0163 68.4435 36.6587C67.4861 36.1138 66.786 35.2131 66.4966 34.1517C66.2071 33.0902 66.3528 31.9569 66.9015 31.0033C70.8559 22.9147 78.3352 17.1137 87.1541 15.2973C102.974 12.5368 118.017 25.2533 118.649 25.7964C120.314 27.2968 120.481 29.851 119.024 31.5539C117.565 33.2567 115.017 33.4876 113.278 32.0742C113.149 31.9701 100.504 21.3614 88.539 23.4445C82.1855 24.9165 76.8556 29.2172 74.0724 35.1166C73.3382 36.4051 71.9722 37.1998 70.4888 37.2036Z" fill="#24AE5F"/>
<path d="M70.4888 37.2038C69.1057 37.2057 67.8134 36.5151 67.0471 35.3647C52.5805 13.6779 27.698 24.0218 26.6479 24.4683C25.2856 25.0757 23.7039 24.9035 22.5062 24.0161C21.3066 23.1288 20.6803 21.6643 20.8639 20.1847C21.0474 18.7051 22.0124 17.4393 23.3917 16.8717C34.4962 12.1151 59.3294 8.90238 73.9286 30.7765C74.7743 32.0441 74.8538 33.6751 74.1348 35.0204C73.4158 36.3656 72.0138 37.2038 70.4888 37.2038Z" fill="#24AE5F"/>
<path d="M70.4891 37.2029C68.527 37.201 66.8355 35.8198 66.4438 33.8956C66.336 33.3753 66.249 32.8209 66.1752 32.242C62.0486 8.75393 42.3825 8.26957 41.5368 8.26957C39.2531 8.26389 37.4083 6.40967 37.414 4.12596C37.4197 1.84414 39.2739 -0.00251288 41.5576 0.0031633C52.6053 0.584025 62.7089 6.40778 68.7503 15.677C72.0727 8.53824 78.0914 3.00775 85.4855 0.296432C87.6065 -0.553102 90.0132 0.47807 90.8628 2.59907C91.7123 4.72007 90.6811 7.12676 88.5601 7.9763C78.8841 11.4653 72.9828 21.2642 74.4245 31.4492C74.4775 31.7916 74.5324 32.136 74.5816 32.4822C74.8995 34.6997 73.3953 36.7678 71.1872 37.1443C70.9583 37.184 70.7237 37.2029 70.4891 37.2029Z" fill="#24AE5F"/>
<path d="M177.562 69.7112C176.802 69.7093 176.06 69.486 175.424 69.0717L175.284 68.9808C174.825 68.8068 174.403 68.5456 174.045 68.2107C172.221 66.9676 171.697 64.5117 172.853 62.6329C174.007 60.754 176.435 60.1126 178.368 61.176L178.987 61.5487C179.084 61.6017 179.176 61.6622 179.265 61.7266C179.415 61.8136 179.562 61.9082 179.702 62.0123C181.63 63.2724 182.202 65.8381 180.993 67.7983C180.243 68.9733 178.955 69.6923 177.562 69.7112Z" fill="#24AE5F"/>
<path d="M194.451 119.786C194.148 119.788 193.847 119.754 193.554 119.686C191.325 119.192 189.919 116.988 190.411 114.761C197.679 81.9753 175.557 70.0138 174.614 69.5218C173.299 68.8482 172.444 67.5238 172.37 66.0499C172.297 64.576 173.016 63.1721 174.257 62.3717C175.496 61.5695 177.07 61.49 178.383 62.1636C178.673 62.3131 207.177 77.3379 198.481 116.545C198.061 118.437 196.386 119.782 194.451 119.786Z" fill="#24AE5F"/>
<path d="M210.28 98.9963C210.127 98.9963 209.971 98.9869 209.818 98.966C207.555 98.7163 205.922 96.6823 206.165 94.4194C206.165 94.2756 207.623 79.8014 199.601 72.708C194.856 68.5134 187.407 67.5673 177.445 69.8813C175.252 70.3278 173.103 68.9504 172.594 66.7708C172.085 64.5911 173.405 62.402 175.57 61.8344C188.304 58.862 198.244 60.4532 205.114 66.5494C216.332 76.5111 214.467 94.5613 214.38 95.3257C214.145 97.4127 212.382 98.9925 210.28 98.9963Z" fill="#24AE5F"/>
<path d="M129.375 80.0814C127.777 80.0833 126.32 79.16 125.637 77.7125C124.954 76.2651 125.167 74.5547 126.185 73.3192C134.783 62.8637 156.861 47.1407 178.868 62.4569C180.139 63.2761 180.864 64.7236 180.754 66.2315C180.646 67.7395 179.723 69.0677 178.346 69.6959C176.97 70.3222 175.362 70.1481 174.151 69.2399C152.82 54.4137 133.39 77.5763 132.571 78.5734C131.786 79.5289 130.613 80.0833 129.375 80.0814Z" fill="#24AE5F"/>
<path d="M176.503 69.9835C174.522 69.9816 172.821 68.5739 172.448 66.6289C171.731 60.141 168.074 54.3418 162.528 50.8964C151.815 45.0272 136.518 51.008 136.365 51.0705C134.289 51.7554 132.037 50.7053 131.23 48.6732C130.422 46.6412 131.336 44.331 133.315 43.4038C134.088 43.0898 152.426 35.934 166.513 43.6555C174.268 48.2324 179.466 56.1431 180.588 65.0774C180.794 66.154 180.565 67.2703 179.95 68.1766C179.335 69.0848 178.385 69.711 177.309 69.9192C177.044 69.9665 176.773 69.9873 176.503 69.9835Z" fill="#24AE5F"/>
<path d="M223.539 72.9521C222.523 72.9521 221.541 72.5775 220.783 71.8982C219.927 71.1338 199.612 53.3693 179.038 69.132C177.865 70.0308 176.302 70.2351 174.938 69.6675C173.574 69.1018 172.616 67.8511 172.425 66.3867C172.234 64.9222 172.838 63.4672 174.011 62.5685C194.884 46.5768 217.362 57.6586 226.33 65.7528C227.6 66.8994 228.031 68.7082 227.416 70.3051C226.801 71.9001 225.267 72.954 223.556 72.9521H223.539Z" fill="#24AE5F"/>
<path d="M176.503 69.9835C175.067 69.9835 173.733 69.2342 172.982 68.0082C172.232 66.7821 172.172 65.2552 172.825 63.9743C172.991 63.6526 173.156 63.3386 173.32 63.0283C177.971 53.8594 175.555 42.6867 167.534 36.2575C166.32 35.3247 165.72 33.7997 165.975 32.2899C166.231 30.7819 167.298 29.5369 168.749 29.0545C170.202 28.5739 171.801 28.9334 172.908 29.991C179.027 34.9463 182.932 42.1248 183.77 49.9541C192.483 43.1371 203.93 40.8931 214.571 43.9204C216.732 44.6545 217.89 47.0006 217.156 49.1633C216.421 51.324 214.075 52.4819 211.913 51.7478C211.086 51.4791 192.343 45.5778 180.86 66.4415C180.603 66.9751 180.334 67.4708 180.071 67.9306C179.331 69.2002 177.973 69.9816 176.503 69.9835Z" fill="#24AE5F"/>
</g>
<defs>
<clipPath id="clip0">
<rect width="248" height="248" fill="white"/>
</clipPath>
</defs>
</svg>
