<svg width="248" height="248" viewBox="0 0 248 248" fill="none" xmlns="http://www.w3.org/2000/svg">
<path d="M218.172 161.533C217.087 168.581 215.216 175.485 212.592 182.116H31.7186C29.0943 175.485 27.2231 168.581 26.1389 161.533H218.172Z" fill="#DE81CE"/>
<path d="M212.592 182.116C209.786 189.42 206.064 196.335 201.514 202.7H42.7966C38.2462 196.335 34.5246 189.42 31.7186 182.116H212.592Z" fill="#B86AAB"/>
<path d="M201.514 202.7C196.059 210.509 189.454 217.449 181.922 223.284H62.3889C54.8566 217.449 48.2514 210.509 42.7966 202.7H201.514Z" fill="#78466F"/>
<path d="M181.922 223.284C146.803 250.728 97.5074 250.728 62.3889 223.284H181.922Z" fill="#382134"/>
<path d="M219.288 146.735C219.294 151.688 218.921 156.636 218.172 161.533H26.1389C20.6311 125.502 35.7563 89.4206 65.3121 68.0895C94.868 46.7585 133.878 43.769 166.337 60.3491C198.797 76.9292 219.244 110.286 219.288 146.735V146.735Z" fill="#0BD3D3"/>
<path d="M105.639 160.933C106.755 158.32 107.33 155.509 107.334 152.667C107.334 141.252 98.0799 132 86.667 132C75.2541 132 66 141.252 66 152.667C66.0038 155.509 66.579 158.32 67.6953 160.933" fill="#F2C94C"/>
<path d="M106.916 44.9123H95.9881L93.2841 162.258H109.619L106.916 44.9123Z" fill="#A36952"/>
<path d="M107.082 52.0921L106.916 44.9123H95.9881L95.8221 52.0921H107.082Z" fill="#99634D"/>
<path d="M101.452 44.9071L138.634 9.51428L137.147 8.78064C128.759 4.64259 118.658 6.01507 111.716 12.2355L106.298 17.0918C98.7892 24.3704 96.8369 35.5697 101.452 44.9071Z" fill="#5C9967"/>
<path d="M101.452 44.9071L64.2693 9.51428L65.756 8.78064C74.1448 4.64259 84.2448 6.01507 91.1876 12.2355L96.6051 17.0918C104.115 24.3704 106.064 35.5697 101.452 44.9071Z" fill="#5C9967"/>
<path d="M101.452 44.9072H47C50.2511 35.2792 59.3822 28.7846 69.666 28.7846H78.7867C89.0693 28.7846 98.1984 35.2792 101.452 44.9072Z" fill="#67AB73"/>
<path d="M155.903 44.9072H101.452C104.703 35.2792 113.834 28.7846 124.118 28.7846H133.238C143.521 28.7846 152.65 35.2792 155.903 44.9072Z" fill="#67AB73"/>
<path d="M136.845 85.2119L101.452 44.9071C112.1 41.9025 125.209 44.6835 132.617 52.8071C140.175 61.0956 142.163 72.9616 137.714 83.2129L136.845 85.2119Z" fill="#77B883"/>
<path d="M66.0588 85.2119L101.452 44.9071C90.8034 41.9025 77.6946 44.6835 70.2861 52.8071C62.7284 61.0956 60.7416 72.9616 65.1902 83.2129L66.0588 85.2119Z" fill="#77B883"/>
<path d="M93.4689 154.198L93.2841 162.258H109.619L109.434 154.198H93.4689Z" fill="#99634D"/>
<path d="M143.749 93H137.537L136 161.715H145.285L143.749 93Z" fill="#A36952"/>
<path d="M144.152 96.7479L144.058 92.5437H137.846L137.752 96.7479H144.152Z" fill="#99634D"/>
<path d="M140.952 92.5407L162.087 71.8156L161.242 71.386C156.474 68.9628 150.732 69.7665 146.786 73.4091L143.706 76.2527C139.438 80.5149 138.328 87.0729 140.952 92.5407Z" fill="#5C9967"/>
<path d="M140.952 92.5407L119.816 71.8156L120.661 71.386C125.43 68.9628 131.171 69.7665 135.117 73.4091L138.197 76.2527C142.465 80.5149 143.573 87.0729 140.952 92.5407Z" fill="#5C9967"/>
<path d="M140.952 92.5407H110C111.848 86.9028 117.038 83.0998 122.884 83.0998H128.068C133.913 83.0998 139.102 86.9028 140.952 92.5407Z" fill="#67AB73"/>
<path d="M171.903 92.5407H140.952C142.8 86.9028 147.99 83.0998 153.836 83.0998H159.02C164.865 83.0998 170.054 86.9028 171.903 92.5407Z" fill="#67AB73"/>
<path d="M161.07 116.142L140.952 92.5407C147.004 90.7812 154.456 92.4097 158.667 97.1667C162.963 102.02 164.093 108.969 161.564 114.971L161.07 116.142Z" fill="#77B883"/>
<path d="M120.833 116.142L140.952 92.5407C134.899 90.7812 127.448 92.4097 123.236 97.1667C118.94 102.02 117.811 108.969 120.34 114.971L120.833 116.142Z" fill="#77B883"/>
<path d="M136.414 156.538L136.309 161.258H145.594L145.489 156.538H136.414Z" fill="#99634D"/>
</svg>
