<svg width="24" height="24" viewBox="0 0 24 24" fill="none" xmlns="http://www.w3.org/2000/svg">
<g clip-path="url(#clip0)">
<path d="M22.4 3.99999H8.2L7.28 0.956395C7.06222 0.247496 6.31444 -0.154047 5.6032 0.055995L3.56601 0.655995C3.34158 0.722376 3.13809 0.845547 2.97521 1.01359L0.680007 3.39079C0.507425 3.57116 0.388332 3.79591 0.336008 4.03999C0.102008 5.11999 -0.543992 9.03519 0.988007 14.1C2.52001 19.1648 5.228 22.0904 6.024 22.866C6.20236 23.0411 6.42565 23.1635 6.6692 23.2196L9.9064 23.9664C10.0065 23.9895 10.1089 24.0012 10.2116 24.0012C10.3421 24.0011 10.472 23.9824 10.5972 23.9456L11.7244 23.6132L12.6328 23.3452C12.9786 23.2455 13.2696 23.0106 13.44 22.6936C13.6097 22.3819 13.6471 22.0151 13.5436 21.6756L13.0368 20H22.4C23.2836 20 24 19.2836 24 18.4V5.59999C24 4.71634 23.2836 3.99999 22.4 3.99999ZM16.1 11.88L23.1508 5.33359C23.1825 5.41887 23.1992 5.50901 23.2 5.59999V18.4C23.1988 18.4857 23.1839 18.5707 23.1556 18.6516L16.1 11.88ZM22.4 4.79999C22.4454 4.80066 22.4906 4.80521 22.5352 4.81359L14.16 12.5872C13.8532 12.8718 13.3788 12.8718 13.072 12.5872L7.312 7.25479L7.7364 7.12959C8.08157 7.02925 8.37197 6.79448 8.5424 6.47799C8.71192 6.1665 8.74897 5.7999 8.6452 5.46079L8.444 4.79999H22.4ZM6.2936 16.4924C5.46779 15.4814 4.85375 14.3147 4.48801 13.0616C3.97138 11.4826 3.90092 9.79166 4.28441 8.17519C4.29266 8.15339 4.31102 8.13697 4.3336 8.13119L6.4164 7.51719L11.114 11.8644L6.2936 16.4924ZM12.7336 22.3128C12.6642 22.4413 12.546 22.5365 12.4056 22.5768L11.8752 22.7332L10.9012 19.51C10.8619 19.3708 10.7504 19.2636 10.6098 19.2298C10.4691 19.196 10.3212 19.2407 10.2228 19.3469C10.1245 19.453 10.0912 19.6039 10.1356 19.7416L11.11 22.96L10.3716 23.1776C10.2788 23.2052 10.1804 23.2082 10.086 23.1864L6.8488 22.44C6.74849 22.4165 6.65659 22.3659 6.5832 22.2936C5.8232 21.5516 3.22841 18.7504 1.75361 13.8688C0.278808 8.98719 0.894007 5.23999 1.11761 4.20879C1.13911 4.10983 1.18757 4.01874 1.25761 3.94559L3.55041 1.56959C3.61654 1.50104 3.69919 1.45063 3.79041 1.42319L4.5348 1.20399L5.5088 4.42679C5.55977 4.59561 5.71526 4.71114 5.8916 4.71119C5.93079 4.71139 5.96977 4.70559 6.0072 4.69399C6.21857 4.63009 6.33817 4.407 6.2744 4.19559L5.3036 0.977995L5.8292 0.823195C6.11954 0.735676 6.42622 0.898202 6.5168 1.18759L7.8768 5.69159C7.91857 5.82667 7.90415 5.97288 7.8368 6.09719C7.76724 6.22566 7.64911 6.32089 7.5088 6.36159L6.978 6.51799L6.8208 5.99799C6.75288 5.7919 6.53301 5.67755 6.32527 5.74028C6.11753 5.80302 5.9977 6.01995 6.0552 6.22919L6.2108 6.74439L4.10761 7.36439C3.81926 7.44865 3.59455 7.67533 3.51281 7.96439C3.09088 9.72545 3.16355 11.5688 3.72281 13.2912C4.21396 15.0394 5.17523 16.6194 6.502 17.8592C6.72761 18.0581 7.04007 18.1262 7.328 18.0392L9.4364 17.4176L9.5936 17.9376C9.63293 18.0768 9.74436 18.1839 9.88502 18.2178C10.0257 18.2516 10.1736 18.2068 10.272 18.1007C10.3703 17.9946 10.4036 17.8437 10.3592 17.706L10.2036 17.1908L10.7288 17.036C11.0192 16.9491 11.3255 17.1114 11.4168 17.4004L12.7768 21.9048C12.8189 22.0408 12.804 22.188 12.7356 22.3128H12.7336ZM12.7948 19.2L12.182 17.1716C11.9639 16.4614 11.2142 16.0596 10.502 16.2712L7.102 17.2736C7.07759 17.2809 7.05114 17.2762 7.0308 17.2608C6.9748 17.2116 6.9108 17.1504 6.8368 17.0808L11.7024 12.4088L12.528 13.1732C13.1429 13.7401 14.0899 13.7401 14.7048 13.1732L15.5128 12.4228L22.5556 19.1828C22.5044 19.1936 22.4523 19.1994 22.4 19.2H12.7948Z" fill="url(#paint0_linear)"/>
<path d="M10.4 6.4H16.8C17.0209 6.4 17.2 6.22091 17.2 6C17.2 5.77909 17.0209 5.60001 16.8 5.60001H10.4C10.1791 5.60001 10 5.77909 10 6C10 6.22091 10.1791 6.4 10.4 6.4Z" fill="url(#paint1_linear)"/>
<path d="M22 8.79999C21.7791 8.79999 21.6 8.97907 21.6 9.19999V14.8C21.6 15.0209 21.7791 15.2 22 15.2C22.2209 15.2 22.4 15.0209 22.4 14.8V9.19999C22.4 8.97907 22.2209 8.79999 22 8.79999Z" fill="url(#paint2_linear)"/>
</g>
<defs>
<linearGradient id="paint0_linear" x1="11.9999" y1="0.000244141" x2="11.9999" y2="24.0012" gradientUnits="userSpaceOnUse">
<stop stop-color="#0BD3D3"/>
<stop offset="1" stop-color="#F890E7"/>
</linearGradient>
<linearGradient id="paint1_linear" x1="13.6" y1="5.60001" x2="13.6" y2="6.4" gradientUnits="userSpaceOnUse">
<stop stop-color="#0BD3D3"/>
<stop offset="1" stop-color="#F890E7"/>
</linearGradient>
<linearGradient id="paint2_linear" x1="22" y1="8.79999" x2="22" y2="15.2" gradientUnits="userSpaceOnUse">
<stop stop-color="#0BD3D3"/>
<stop offset="1" stop-color="#F890E7"/>
</linearGradient>
<clipPath id="clip0">
<rect width="24" height="24" fill="white"/>
</clipPath>
</defs>
</svg>
