<svg width="24" height="24" viewBox="0 0 24 24" fill="none" xmlns="http://www.w3.org/2000/svg">
<path d="M21.4828 23.3172L20.4 22.2344V8.2344L20.2012 8.0356L18.4 6.2344V0H2.39999V20.8H4.39999V22.8H19.8344L20.9172 23.8828C20.9952 23.9608 21.0976 24 21.2 24C21.3024 24 21.4048 23.9608 21.4828 23.8828C21.6392 23.7264 21.6392 23.4736 21.4828 23.3172ZM19.0344 8H14.4V3.3656L18.4 7.3656L19.0344 8ZM3.19999 20V0.8H17.6V5.4344L14.3644 2.1988L14.1656 2H4.39999V20H3.19999ZM5.19999 22V20.8V2.8H13.6V8.8H19.6V21.4344L16.5944 18.4288C17.2904 17.6048 17.7124 16.542 17.7124 15.3812C17.7124 12.7724 15.59 10.65 12.9812 10.65C10.3724 10.65 8.24999 12.7724 8.24999 15.3812C8.24999 17.99 10.3724 20.1124 12.9812 20.1124C14.142 20.1124 15.2048 19.6904 16.0288 18.9944L19.0344 22H5.19999ZM12.9812 19.3124C10.8136 19.3124 9.04999 17.5488 9.04999 15.3812C9.04999 13.2136 10.8136 11.45 12.9812 11.45C15.1488 11.45 16.9124 13.2136 16.9124 15.3812C16.9124 17.5488 15.1488 19.3124 12.9812 19.3124Z" fill="url(#paint0_linear)"/>
<path d="M10.65 14.4H13.05C13.2712 14.4 13.45 14.2212 13.45 14C13.45 13.7788 13.2712 13.6 13.05 13.6H10.65C10.4288 13.6 10.25 13.7788 10.25 14C10.25 14.2212 10.4288 14.4 10.65 14.4Z" fill="url(#paint1_linear)"/>
<path d="M15.45 16H10.65C10.4288 16 10.25 16.1788 10.25 16.4C10.25 16.6212 10.4288 16.8 10.65 16.8H15.45C15.6712 16.8 15.85 16.6212 15.85 16.4C15.85 16.1788 15.6712 16 15.45 16Z" fill="url(#paint2_linear)"/>
<defs>
<linearGradient id="paint0_linear" x1="12" y1="0" x2="12" y2="24" gradientUnits="userSpaceOnUse">
<stop stop-color="#0BD3D3"/>
<stop offset="1" stop-color="#F890E7"/>
</linearGradient>
<linearGradient id="paint1_linear" x1="11.85" y1="13.6" x2="11.85" y2="14.4" gradientUnits="userSpaceOnUse">
<stop stop-color="#0BD3D3"/>
<stop offset="1" stop-color="#F890E7"/>
</linearGradient>
<linearGradient id="paint2_linear" x1="13.05" y1="16" x2="13.05" y2="16.8" gradientUnits="userSpaceOnUse">
<stop stop-color="#0BD3D3"/>
<stop offset="1" stop-color="#F890E7"/>
</linearGradient>
</defs>
</svg>
