<svg width="25" height="25" viewBox="0 0 25 25" fill="none" xmlns="http://www.w3.org/2000/svg">
<path d="M23.9434 11.0306L20.3513 7.71587V2.28549H16.2133V3.89783L12.0753 0.0793762L0.207613 11.0306C0.0404385 11.1852 0.0305073 11.4455 0.186095 11.612C0.341269 11.7782 0.603203 11.7876 0.771205 11.6334L2.1446 10.3661V24.0794H8.76536H15.3861H22.0069V10.3657L23.3803 11.633C23.4597 11.7066 23.5611 11.7428 23.6621 11.7428C23.7734 11.7428 23.8839 11.6988 23.965 11.6116C24.1206 11.4455 24.1106 11.1852 23.9434 11.0306ZM17.0409 3.1079H19.5237V6.95226L17.0409 4.66144V3.1079ZM9.59254 23.257V14.5957C9.59254 14.3832 9.76633 14.2104 9.98027 14.2104H14.1704C14.3843 14.2104 14.5581 14.3832 14.5581 14.5957V23.257H9.59254ZM21.1789 23.257H15.3857V14.5957C15.3857 13.9296 14.8407 13.388 14.1704 13.388H9.98027C9.30992 13.388 8.76494 13.9296 8.76494 14.5957V23.257H2.97178V9.60207L12.0753 1.20156L17.9844 6.65414L20.3513 8.83805L21.1789 9.60166V23.257Z" fill="url(#paint0_linear)"/>
<defs>
<linearGradient id="paint0_linear" x1="12.0755" y1="0.0793762" x2="12.0755" y2="24.0794" gradientUnits="userSpaceOnUse">
<stop stop-color="#0BD3D3"/>
<stop offset="1" stop-color="#F890E7"/>
</linearGradient>
</defs>
</svg>
