<svg width="14" height="14" viewBox="0 0 14 14" fill="none" xmlns="http://www.w3.org/2000/svg">
<g clip-path="url(#clip0)">
<path d="M4.11501 10.521C7.65266 10.521 10.5202 7.65306 10.5202 4.11541C10.5202 2.54785 9.95537 1.11387 9.02075 0.000396729C11.9084 0.927395 13.9996 3.63218 13.9996 6.82782C13.9996 10.7891 10.7887 13.9999 6.82742 13.9999C3.63179 13.9999 0.926998 11.9088 0 9.02114C1.11347 9.95621 2.5479 10.521 4.11501 10.521Z" fill="#FFD93B"/>
<path d="M11.2602 1.19843C12.2195 2.41724 12.796 3.95163 12.796 5.62363C12.796 9.58489 9.5851 12.7958 5.62384 12.7958C3.95184 12.7958 2.41745 12.2193 1.19864 11.26C2.51114 12.9262 4.5422 13.9998 6.82787 13.9998C10.7891 13.9998 14 10.7889 14 6.82765C14 4.54198 12.9264 2.51137 11.2602 1.19843Z" fill="#F4C534"/>
<path d="M3.58964 2.80005L4.32837 4.29768L5.98065 4.5375L4.78514 5.70297L5.0671 7.34852L3.58964 6.57169L2.11173 7.34852L2.39369 5.70297L1.19818 4.5375L2.85046 4.29768L3.58964 2.80005Z" fill="#FFD83B"/>
<path d="M7.75665 2.32086L8.13946 3.09725L8.99608 3.22141L8.37614 3.82566L8.52272 4.67825L7.75665 4.27572L6.99057 4.67825L7.13715 3.82566L6.51721 3.22141L7.37383 3.09725L7.75665 2.32086Z" fill="#FFD83B"/>
</g>
<defs>
<clipPath id="clip0">
<rect width="14" height="14" fill="white"/>
</clipPath>
</defs>
</svg>
