<svg width="18" height="18" viewBox="0 0 18 18" fill="none" xmlns="http://www.w3.org/2000/svg">
<path d="M8.99989 14.0914C11.8118 14.0914 14.0914 11.8118 14.0914 8.99989C14.0914 6.18795 11.8118 3.90842 8.99989 3.90842C6.18795 3.90842 3.90842 6.18795 3.90842 8.99989C3.90842 11.8118 6.18795 14.0914 8.99989 14.0914Z" fill="#FFD347"/>
<path d="M9 1.9986C8.84978 1.9986 8.728 1.87685 8.728 1.72659V0.272004C8.728 0.121746 8.84978 0 9 0C9.15022 0 9.27201 0.121746 9.27201 0.272004V1.72663C9.27201 1.87685 9.15022 1.9986 9 1.9986Z" fill="#FFD347"/>
<path d="M5.36355 2.97307C5.26954 2.97307 5.17813 2.92431 5.12775 2.83705L4.40047 1.57734C4.32538 1.44726 4.36992 1.2809 4.50004 1.20577C4.63015 1.13075 4.79647 1.17518 4.8716 1.30533L5.59888 2.56505C5.67398 2.69513 5.62943 2.86149 5.49932 2.93662C5.45647 2.96133 5.40971 2.97307 5.36355 2.97307Z" fill="#FFD347"/>
<path d="M2.70081 5.63532C2.65468 5.63532 2.60789 5.62357 2.56507 5.59882L1.30535 4.87155C1.17527 4.79645 1.13069 4.63009 1.20579 4.49998C1.28088 4.36987 1.44724 4.32536 1.57735 4.40042L2.83707 5.1277C2.96715 5.20279 3.01173 5.36915 2.93663 5.49926C2.88622 5.58656 2.79481 5.63532 2.70081 5.63532Z" fill="#FFD347"/>
<path d="M1.72659 9.27201H0.272004C0.121781 9.27201 0 9.15026 0 9C0 8.84974 0.121781 8.728 0.272004 8.728H1.72663C1.87685 8.728 1.99863 8.84974 1.99863 9C1.99863 9.15026 1.87682 9.27201 1.72659 9.27201Z" fill="#FFD347"/>
<path d="M1.44159 13.636C1.34759 13.636 1.25618 13.5872 1.2058 13.5C1.13071 13.3699 1.17525 13.2035 1.30536 13.1284L2.56509 12.4011C2.69517 12.3261 2.86152 12.3706 2.93665 12.5007C3.01175 12.6308 2.9672 12.7971 2.83709 12.8723L1.57737 13.5995C1.53451 13.6243 1.48772 13.636 1.44159 13.636Z" fill="#FFD347"/>
<path d="M4.63577 16.8307C4.58965 16.8307 4.54285 16.819 4.50003 16.7942C4.36996 16.7191 4.32538 16.5528 4.40047 16.4227L5.12775 15.1629C5.20284 15.0328 5.3692 14.9883 5.49931 15.0634C5.62939 15.1385 5.67397 15.3048 5.59887 15.4349L4.8716 16.6947C4.82119 16.7819 4.72978 16.8307 4.63577 16.8307Z" fill="#FFD347"/>
<path d="M9 18C8.84978 18 8.728 17.8783 8.728 17.728V16.2734C8.728 16.1231 8.84978 16.0014 9 16.0014C9.15022 16.0014 9.27201 16.1231 9.27201 16.2734V17.728C9.27201 17.8783 9.15022 18 9 18Z" fill="#FFD347"/>
<path d="M13.3642 16.8307C13.2702 16.8307 13.1788 16.7819 13.1284 16.6947L12.4012 15.4349C12.3261 15.3049 12.3706 15.1385 12.5007 15.0634C12.6308 14.9884 12.7972 15.0328 12.8723 15.1629L13.5996 16.4227C13.6747 16.5527 13.6301 16.7191 13.5 16.7942C13.4571 16.8189 13.4104 16.8307 13.3642 16.8307Z" fill="#FFD347"/>
<path d="M16.5584 13.636C16.5123 13.636 16.4655 13.6243 16.4227 13.5995L15.163 12.8722C15.0329 12.7972 14.9883 12.6308 15.0634 12.5007C15.1385 12.3706 15.3049 12.3261 15.435 12.4011L16.6947 13.1284C16.8248 13.2035 16.8693 13.3699 16.7942 13.5C16.7438 13.5872 16.6524 13.636 16.5584 13.636Z" fill="#FFD347"/>
<path d="M17.728 9.27201H16.2734C16.1231 9.27201 16.0014 9.15026 16.0014 9C16.0014 8.84974 16.1231 8.728 16.2734 8.728H17.728C17.8782 8.728 18 8.84974 18 9C18 9.15026 17.8782 9.27201 17.728 9.27201Z" fill="#FFD347"/>
<path d="M15.2992 5.63536C15.2052 5.63536 15.1138 5.58659 15.0634 5.49934C14.9883 5.36926 15.0328 5.2029 15.163 5.12777L16.4227 4.4005C16.5528 4.32548 16.7191 4.36992 16.7943 4.50006C16.8694 4.63014 16.8248 4.7965 16.6947 4.87163L15.435 5.5989C15.3921 5.62361 15.3453 5.63536 15.2992 5.63536Z" fill="#FFD347"/>
<path d="M12.6365 2.97306C12.5903 2.97306 12.5435 2.96132 12.5007 2.93657C12.3706 2.86148 12.3261 2.69512 12.4012 2.565L13.1284 1.30528C13.2035 1.17517 13.3699 1.13066 13.5 1.20572C13.6301 1.28081 13.6747 1.44717 13.5996 1.57728L12.8723 2.83701C12.8219 2.9243 12.7304 2.97306 12.6365 2.97306Z" fill="#FFD347"/>
<path d="M9 3.90866C8.81571 3.90866 8.63374 3.91872 8.45451 3.93777C11.0098 4.20999 13.0003 6.37241 13.0003 8.99995C13.0003 11.6275 11.0098 13.79 8.45451 14.0622C8.63374 14.0813 8.81567 14.0913 9 14.0913C11.8119 14.0913 14.0913 11.8118 14.0913 8.99995C14.0913 6.18809 11.8119 3.90866 9 3.90866Z" fill="#FFBE31"/>
</svg>
